<svg xmlns="http://www.w3.org/2000/svg" xmlns:xlink="http://www.w3.org/1999/xlink" width="128.632" height="78.435" viewBox="0 0 128.632 78.435"><defs><path id="a" d="M0 0h128.632v78.435H0z"/></defs><clipPath id="b"><use xlink:href="#a" overflow="visible"/></clipPath><path clip-path="url(#b)" d="M30.92 78.22c-4.524 0-8.672-.54-12.443-1.616-3.77-1.078-7.04-2.587-9.804-4.525-2.766-1.94-4.903-4.257-6.41-6.95C.752 62.435 0 59.437 0 56.13v-.215c0-4.596 1.112-8.332 3.34-11.205 2.225-2.872 5.387-5.172 9.48-6.896-2.873-1.65-5.297-3.787-7.272-6.41-1.976-2.62-2.963-5.98-2.963-10.074v-.215c0-3.017.682-5.8 2.048-8.35 1.363-2.55 3.286-4.758 5.763-6.626 2.48-1.866 5.458-3.32 8.943-4.363C22.82.737 26.68.215 30.92.215s8.098.522 11.583 1.562C45.986 2.82 48.985 4.274 51.5 6.14c2.513 1.87 4.452 4.078 5.818 6.627 1.363 2.55 2.046 5.333 2.046 8.35v.215c0 4.094-.988 7.453-2.962 10.074-1.977 2.623-4.436 4.76-7.38 6.41 1.94.862 3.698 1.85 5.28 2.963 1.578 1.114 2.925 2.388 4.04 3.824 1.112 1.438 1.992 3.07 2.64 4.9.645 1.833.968 3.898.968 6.196v.216c0 3.377-.773 6.447-2.316 9.21-1.546 2.768-3.682 5.12-6.41 7.06-2.73 1.938-6 3.43-9.805 4.47-3.81 1.042-7.974 1.563-12.5 1.563m0-15.623c3.52 0 6.213-.844 8.082-2.53 1.867-1.69 2.8-3.682 2.8-5.98v-.217c0-2.513-1.006-4.525-3.016-6.033s-4.633-2.263-7.865-2.263c-3.23 0-5.854.755-7.864 2.263-2.012 1.508-3.016 3.52-3.016 6.033v.216c0 2.3.932 4.293 2.8 5.98 1.868 1.687 4.56 2.53 8.08 2.53m0-30.49c2.802 0 5.065-.79 6.79-2.37 1.723-1.58 2.584-3.556 2.584-5.926v-.216c0-2.082-.826-3.932-2.478-5.548-1.653-1.616-3.95-2.424-6.895-2.424-2.873 0-5.135.808-6.786 2.424-1.654 1.616-2.48 3.466-2.48 5.548v.216c0 2.37.845 4.347 2.533 5.926 1.687 1.58 3.933 2.37 6.734 2.37M98.68 78.435c-5.387 0-9.895-.755-13.52-2.263s-6.808-3.626-9.535-6.357c-2.802-2.8-5.047-6.444-6.734-10.935-1.687-4.488-2.53-10.252-2.53-17.292v-.216c0-5.89.717-11.348 2.154-16.377 1.437-5.026 3.61-9.39 6.52-13.09 2.907-3.7 6.553-6.607 10.934-8.727C90.348 1.06 95.482 0 101.373 0c5.314 0 9.912.705 13.79 2.114 3.88 1.41 7.65 3.488 11.314 6.234l-9.804 14.708c-2.3-1.724-4.616-3.106-6.95-4.148-2.334-1.04-5.01-1.562-8.025-1.562-2.73 0-4.976.554-6.734 1.66-1.76 1.106-3.178 2.48-4.256 4.12-1.077 1.64-1.85 3.388-2.316 5.243-.468 1.854-.772 3.53-.916 5.03 2.44-1.868 4.956-3.304 7.542-4.31 2.585-1.005 5.494-1.51 8.728-1.51 3.302 0 6.464.523 9.48 1.564s5.656 2.55 7.92 4.525c2.262 1.975 4.074 4.434 5.44 7.38 1.363 2.945 2.047 6.285 2.047 10.018v.217c0 4.238-.79 8.026-2.37 11.366-1.582 3.34-3.718 6.18-6.41 8.513-2.693 2.335-5.873 4.13-9.536 5.387s-7.544 1.885-11.637 1.885m-.863-16.268c3.304 0 5.89-.934 7.758-2.8 1.866-1.868 2.8-4.166 2.8-6.897v-.215c0-2.73-.968-5.027-2.907-6.896-1.94-1.866-4.562-2.802-7.866-2.802-3.304 0-5.87.916-7.703 2.748-1.832 1.83-2.748 4.112-2.748 6.84v.218c0 2.73.95 5.047 2.855 6.948 1.902 1.903 4.506 2.855 7.81 2.855"/></svg>