<svg xmlns="http://www.w3.org/2000/svg" xmlns:xlink="http://www.w3.org/1999/xlink" width="143.05" height="34.977" viewBox="0 0 143.05 34.977"><defs><path id="a" d="M0 0h143.05v34.977H0z"/></defs><clipPath id="b"><use xlink:href="#a" overflow="visible"/></clipPath><path clip-path="url(#b)" fill="#81BB27" d="M83.18 26.21c0-1.625-.89-3.36-3.39-3.36h-4.627v12.09h4.627c2.214 0 3.435-1.277 3.435-3.6 0-1.233-.46-2.126-1.054-2.656.64-.535 1.01-1.41 1.01-2.475m-3.39 6.824h-2.722V29.6h2.748c1.037 0 1.5.858 1.5 1.71 0 1.52-.77 1.724-1.526 1.724m0-5.357h-2.722v-2.92h2.722c.537 0 .926.117 1.154.35.223.224.332.593.327 1.097-.01.977-.508 1.473-1.48 1.473M91.655 30.132c.947-.324 1.826-1.244 1.826-3.545 0-3.09-1.687-3.738-3.103-3.738h-5.05v12.09h1.908v-4.79c.443.03 1.172.072 2.39.142l2.362 4.648h2.11l-2.442-4.808zm-4.42-5.36h3.142c.527 0 1.182 0 1.182 1.815 0 1.754-.522 1.754-1.183 1.754h-3.142v-3.57z"/><path clip-path="url(#b)" fill="#FFF" d="M95.867 23.478c1.537-.195 3.062-.256 4.435-.256 2.188 0 3.062 1.523 3.062 3.168 0 2.88-4.797 6.474-5.777 7.166h5.777v.86h-7.392v-.8c1.585-1.13 6.518-4.752 6.518-7.256 0-1.435-.74-2.264-2.218-2.264h-4.404v-.618z"/><path clip-path="url(#b)" fill="none" stroke="#FFF" stroke-miterlimit="10" d="M95.867 23.478c1.537-.195 3.062-.256 4.435-.256 2.188 0 3.062 1.523 3.062 3.168 0 2.88-4.797 6.474-5.777 7.166h5.777v.86h-7.392v-.8c1.585-1.13 6.518-4.752 6.518-7.256 0-1.435-.74-2.264-2.218-2.264h-4.404v-.618z"/><path clip-path="url(#b)" fill="#FFF" d="M106.878 25.817c0-1.628 1.16-2.443 2.595-2.443h2.324c1.84 0 2.52 1.116 2.52 2.443v6.155c0 1.796-1.027 2.444-2.52 2.444h-2.324c-1.373 0-2.595-.634-2.595-2.444v-6.155zm2.595 7.74h2.324c1.176 0 1.658-.604 1.658-1.585v-6.155c0-.92-.437-1.583-1.658-1.583h-2.324c-1.146 0-1.735.647-1.735 1.583v6.155c0 1.148.8 1.584 1.735 1.584"/><path clip-path="url(#b)" fill="none" stroke="#FFF" stroke-miterlimit="10" d="M106.878 25.817c0-1.628 1.16-2.443 2.595-2.443h2.324c1.84 0 2.52 1.116 2.52 2.443v6.155c0 1.796-1.027 2.444-2.52 2.444h-2.324c-1.373 0-2.595-.634-2.595-2.444v-6.155zm2.595 7.74h2.324c1.176 0 1.658-.604 1.658-1.585v-6.155c0-.92-.437-1.583-1.658-1.583h-2.324c-1.146 0-1.735.647-1.735 1.583v6.155c0 1.148.8 1.584 1.735 1.584z"/><path clip-path="url(#b)" fill="#FFF" d="M117.678 24.656l2.535-1.283h.858v11.044h-.857V24.354l-2.535.89"/><path clip-path="url(#b)" fill="none" stroke="#FFF" stroke-miterlimit="10" d="M117.678 24.656l2.535-1.283h.858v11.044h-.857V24.354l-2.535.89z"/><path clip-path="url(#b)" fill="#858685" d="M125.204 33.572h4.586c1.056 0 1.613-.74 1.613-1.69V30.3c0-.588-.09-1.674-1.613-1.674h-2.323c-.694 0-1.45.514-1.45 1.39h-.783l.332-6.64h6.366v.86h-5.566l-.212 4.163c.182-.24.68-.588 1.373-.634.905-.074 1.795 0 2.264 0 1.78 0 2.476 1.042 2.476 2.505v1.645c0 2.066-1.54 2.564-2.475 2.564-1.87 0-2.882-.016-4.585-.286v-.618z"/><path clip-path="url(#b)" fill="none" stroke="#FFF" stroke-miterlimit="10" d="M125.204 33.572h4.586c1.056 0 1.613-.74 1.613-1.69V30.3c0-.588-.09-1.674-1.613-1.674h-2.323c-.694 0-1.45.514-1.45 1.39h-.783l.332-6.64h6.366v.86h-5.566l-.212 4.163c.182-.24.68-.588 1.373-.634.905-.074 1.795 0 2.264 0 1.78 0 2.476 1.042 2.476 2.505v1.645c0 2.066-1.54 2.564-2.475 2.564-1.87 0-2.882-.016-4.585-.286v-.618z"/><path clip-path="url(#b)" fill="#FFF" d="M3.01 18.078c0 .72.334.72.823.72h1.03c.025.208.025.44.025.593 0 .104 0 .36-.025.566H2.778c-.953 0-1.004-.745-1.004-1.21v-6.033c0-2.19-.387-2.343-1.622-2.37C.1 10.114.1 9.984.1 9.856c0-.103 0-.31.052-.54C1.387 9.29 1.774 9.03 1.774 6.87V1.31c0-.463.05-1.21 1.004-1.21h2.085c.025.206.025.463.025.566 0 .155 0 .387-.025.592h-1.03c-.49 0-.824 0-.824.72v4.89c0 1.417-.31 2.292-.85 2.935.566.62.85 1.34.85 2.73v5.545z"/><path clip-path="url(#b)" fill="none" stroke="#FFF" stroke-width=".2" stroke-miterlimit="10" d="M3.01 18.078c0 .72.334.72.823.72h1.03c.025.208.025.44.025.593 0 .104 0 .36-.025.566H2.778c-.953 0-1.004-.745-1.004-1.21v-6.033c0-2.19-.387-2.343-1.622-2.37C.1 10.114.1 9.984.1 9.856c0-.103 0-.31.052-.54C1.387 9.29 1.774 9.03 1.774 6.87V1.31c0-.463.05-1.21 1.004-1.21h2.085c.025.206.025.463.025.566 0 .155 0 .387-.025.592h-1.03c-.49 0-.824 0-.824.72v4.89c0 1.417-.31 2.292-.85 2.935.566.62.85 1.34.85 2.73v5.545z"/><path clip-path="url(#b)" fill="#FFF" d="M140.04 12.532c0-1.39.284-2.11.85-2.73-.54-.642-.85-1.517-.85-2.933V1.98c0-.722-.334-.722-.822-.722h-1.03c-.025-.205-.025-.437-.025-.592 0-.103 0-.36.025-.566h2.085c.953 0 1.004.747 1.004 1.21v5.56c0 2.162.387 2.42 1.622 2.445.05.23.05.437.05.54 0 .13 0 .258-.05.49-1.236.025-1.623.18-1.623 2.368v6.035c0 .462-.05 1.208-1.004 1.208h-2.085c-.025-.206-.025-.463-.025-.565 0-.153 0-.386.025-.59h1.03c.488 0 .823 0 .823-.722v-5.546z"/><path clip-path="url(#b)" fill="none" stroke="#FFF" stroke-width=".2" stroke-miterlimit="10" d="M140.04 12.532c0-1.39.284-2.11.85-2.73-.54-.642-.85-1.517-.85-2.933V1.98c0-.722-.334-.722-.822-.722h-1.03c-.025-.205-.025-.437-.025-.592 0-.103 0-.36.025-.566h2.085c.953 0 1.004.747 1.004 1.21v5.56c0 2.162.387 2.42 1.622 2.445.05.23.05.437.05.54 0 .13 0 .258-.05.49-1.236.025-1.623.18-1.623 2.368v6.035c0 .462-.05 1.208-1.004 1.208h-2.085c-.025-.206-.025-.463-.025-.565 0-.153 0-.386.025-.59h1.03c.488 0 .823 0 .823-.722v-5.546z"/><path clip-path="url(#b)" fill="#FFF" d="M9.478 3.36h1.327l6.916 9.837.896 1.672-.216-1.86V3.36h1.522v13.535h-1.405l-6.867-9.81-.865-1.522L11 7.367v9.528H9.48"/><path clip-path="url(#b)" fill="none" stroke="#FFF" stroke-miterlimit="10" d="M9.478 3.36h1.327l6.916 9.837.896 1.672-.216-1.86V3.36h1.522v13.535h-1.405l-6.867-9.81-.865-1.522L11 7.367v9.528H9.48z"/><path clip-path="url(#b)" fill="#FFF" d="M31.523 17.072c-2.332 0-3.87-.66-4.618-1.982-.438-.766-.697-1.79-.775-3.07-.034-.6-.05-1.256-.05-1.963 0-.708.023-1.38.07-2.013.045-.634.135-1.207.27-1.72.133-.513.323-.966.57-1.36.244-.39.567-.72.967-.985.825-.532 2.013-.797 3.566-.797h.61c2.43 0 3.985.59 4.667 1.77.424.737.664 1.763.716 3.078.027.644.04 1.324.04 2.04 0 .717-.02 1.377-.06 1.982-.038.604-.12 1.163-.245 1.676-.123.513-.305.976-.544 1.39-.24.412-.562.763-.968 1.052-.84.6-2.04.902-3.605.902h-.61zm.59-1.274c.72 0 1.318-.07 1.794-.212.475-.142.85-.39 1.125-.743.51-.655.766-1.91.766-3.77v-.954c0-.892-.027-1.685-.08-2.38-.05-.697-.192-1.284-.42-1.76-.473-.992-1.495-1.488-3.067-1.488h-.824c-1.598 0-2.62.463-3.065 1.39-.28.59-.435 1.285-.46 2.087-.028.8-.04 1.518-.04 2.15v.954c0 1.74.288 2.967.864 3.68.556.696 1.497 1.044 2.82 1.044h.59z"/><path clip-path="url(#b)" fill="none" stroke="#FFF" stroke-miterlimit="10" d="M31.523 17.072c-2.332 0-3.87-.66-4.618-1.982-.438-.766-.697-1.79-.775-3.07-.034-.6-.05-1.256-.05-1.963 0-.708.023-1.38.07-2.013.045-.634.135-1.207.27-1.72.133-.513.323-.966.57-1.36.244-.39.567-.72.967-.985.825-.532 2.013-.797 3.566-.797h.61c2.43 0 3.985.59 4.667 1.77.424.737.664 1.763.716 3.078.027.644.04 1.324.04 2.04 0 .717-.02 1.377-.06 1.982-.038.604-.12 1.163-.245 1.676-.123.513-.305.976-.544 1.39-.24.412-.562.763-.968 1.052-.84.6-2.04.902-3.605.902h-.61zm.59-1.274c.72 0 1.318-.07 1.794-.212.475-.142.85-.39 1.125-.743.51-.655.766-1.91.766-3.77v-.954c0-.892-.027-1.685-.08-2.38-.05-.697-.192-1.284-.42-1.76-.473-.992-1.495-1.488-3.067-1.488h-.824c-1.598 0-2.62.463-3.065 1.39-.28.59-.435 1.285-.46 2.087-.028.8-.04 1.518-.04 2.15v.954c0 1.74.288 2.967.864 3.68.556.696 1.497 1.044 2.82 1.044h.59z"/><path clip-path="url(#b)" fill="#FFF" d="M60.75 3.36h8.518v1.31h-6.85v4.67h5.522v1.3h-5.52v4.955h7.112v1.3H60.75"/><path clip-path="url(#b)" fill="none" stroke="#FFF" stroke-miterlimit="10" d="M60.75 3.36h8.518v1.31h-6.85v4.67h5.522v1.3h-5.52v4.955h7.112v1.3H60.75z"/><path clip-path="url(#b)" fill="#82BB26" d="M84.5 14.57c-1.022.352-2.053.53-3.148.53-1.35 0-2.275-.332-2.748-.988-.453-.623-.683-1.792-.683-3.475v-.654c0-2.596.352-3.71.646-4.19.22-.364.517-.617.907-.774.854-.35 2.606-.444 5.03.318l.477.15.738-2.34-.46-.158c-.247-.085-.693-.188-1.362-.315-.666-.126-1.548-.19-2.623-.19-1.72 0-3.068.335-3.998.99-.48.33-.865.74-1.147 1.22-.272.46-.483.985-.626 1.563-.138.562-.23 1.183-.272 1.846-.043.65-.066 1.34-.066 2.055 0 .712.024 1.383.07 1.996.113 1.317.437 2.39.965 3.188.886 1.347 2.604 2.03 5.104 2.03h.137c.555 0 1.202-.048 1.922-.14.75-.1 1.403-.272 1.94-.515l.42-.19-.75-2.12-.472.16zM100.577 4.504c-.773-1.34-2.49-2.02-5.1-2.02h-.61c-1.64 0-2.932.295-3.843.88-.458.305-.833.688-1.114 1.138-.27.432-.48.935-.63 1.497-.14.54-.237 1.148-.285 1.81-.047.648-.07 1.337-.07 2.048 0 .718.017 1.382.052 1.995.082 1.35.364 2.457.838 3.285.84 1.484 2.54 2.236 5.054 2.236h.61c1.663 0 2.974-.335 3.893-.996.463-.328.837-.735 1.11-1.21.264-.45.465-.963.6-1.52.13-.54.22-1.132.26-1.762.04-.614.06-1.286.06-2.014 0-.724-.013-1.41-.04-2.06-.056-1.39-.32-2.502-.786-3.308m-5.827.29h.825c1.374 0 2.23.393 2.615 1.203.2.418.327.95.374 1.58.052.686.078 1.474.078 2.343v.956c0 2.16-.36 3.075-.66 3.46-.212.274-.5.46-.874.572-.427.127-.982.192-1.65.192h-.59c-1.158 0-1.975-.288-2.43-.858-.5-.62-.754-1.752-.754-3.366V9.92c0-.626.012-1.337.04-2.133.02-.728.162-1.364.41-1.887.36-.744 1.216-1.106 2.616-1.106M115.435 12.39l-6.838-9.728h-2.087v14.536h2.524l-.003-9.656 6.76 9.656h1.142l.016.03-.003-.03h1.01V2.662h-2.523M133.25 4.97V2.663h-9.638v14.535h2.67v-5.61h6.043v-2.3h-6.042V4.972"/><path clip-path="url(#b)" fill="#FFF" d="M52.33 13.295c-.195.85-.582 1.448-1.158 1.796-.59.36-1.493.54-2.712.54h-3.124V9.916h-1.67v6.98h4.528c1.723 0 3.03-.242 3.92-.726.865-.46 1.465-1.215 1.8-2.265.287-.908.43-2.238.43-3.99h-1.757c0 1.558-.087 2.684-.256 3.38"/><path clip-path="url(#b)" fill="none" stroke="#FFF" stroke-miterlimit="10" d="M52.33 13.295c-.195.85-.582 1.448-1.158 1.796-.59.36-1.493.54-2.712.54h-3.124V9.916h-1.67v6.98h4.528c1.723 0 3.03-.242 3.92-.726.865-.46 1.465-1.215 1.8-2.265.287-.908.43-2.238.43-3.99h-1.757c0 1.558-.087 2.684-.256 3.38z"/><path clip-path="url(#b)" fill="#FFF" d="M52.33 6.96c-.195-.848-.582-1.447-1.158-1.795-.59-.36-1.493-.54-2.712-.54h-3.124v5.715h-1.67V3.36h4.528c1.723 0 3.03.242 3.92.726.865.46 1.465 1.215 1.8 2.265.287.91.43 2.24.43 3.99h-1.757c0-1.557-.087-2.683-.256-3.38"/><path clip-path="url(#b)" fill="none" stroke="#FFF" stroke-miterlimit="10" d="M52.33 6.96c-.195-.848-.582-1.447-1.158-1.795-.59-.36-1.493-.54-2.712-.54h-3.124v5.715h-1.67V3.36h4.528c1.723 0 3.03.242 3.92.726.865.46 1.465 1.215 1.8 2.265.287.91.43 2.24.43 3.99h-1.757c0-1.557-.087-2.683-.256-3.38z"/></svg>