<?xml version="1.0" encoding="utf-8"?>
<!-- Generator: Adobe Illustrator 16.0.3, SVG Export Plug-In . SVG Version: 6.00 Build 0)  -->
<!DOCTYPE svg PUBLIC "-//W3C//DTD SVG 1.1//EN" "http://www.w3.org/Graphics/SVG/1.1/DTD/svg11.dtd">
<svg version="1.1" id="Layer_1" xmlns="http://www.w3.org/2000/svg" xmlns:xlink="http://www.w3.org/1999/xlink" x="0px" y="0px"
	 width="143.05px" height="34.977px" viewBox="0 0 143.05 34.977" enable-background="new 0 0 143.05 34.977" xml:space="preserve">
<g>
	<defs>
		<rect id="SVGID_1_" width="143.05" height="34.977"/>
	</defs>
	<clipPath id="SVGID_2_">
		<use xlink:href="#SVGID_1_"  overflow="visible"/>
	</clipPath>
	<path clip-path="url(#SVGID_2_)" fill="#81BB27" d="M83.18,26.209c0-1.624-0.891-3.36-3.39-3.36h-4.627V34.94h4.627
		c2.214,0,3.435-1.277,3.435-3.601c0-1.232-0.46-2.125-1.054-2.655C82.81,28.149,83.18,27.274,83.18,26.209 M79.79,33.034h-2.722
		v-3.435h2.748c1.037,0,1.501,0.859,1.501,1.71C81.317,32.829,80.546,33.034,79.79,33.034 M79.79,27.677h-2.722v-2.92h2.722
		c0.537,0,0.926,0.117,1.154,0.349c0.223,0.225,0.332,0.594,0.327,1.098C81.261,27.181,80.762,27.677,79.79,27.677"/>
	<path clip-path="url(#SVGID_2_)" fill="#81BB27" d="M91.655,30.132c0.947-0.324,1.826-1.244,1.826-3.545
		c0-3.089-1.688-3.738-3.104-3.738h-5.05V34.94h1.908v-4.789c0.443,0.03,1.172,0.071,2.389,0.141l2.363,4.648h2.109L91.655,30.132z
		 M87.235,24.771h3.142c0.527,0,1.182,0,1.182,1.816c0,1.754-0.521,1.754-1.182,1.754h-3.142V24.771z"/>
	<path clip-path="url(#SVGID_2_)" fill="#FFFFFF" d="M95.867,23.478c1.537-0.195,3.062-0.256,4.435-0.256
		c2.188,0,3.062,1.523,3.062,3.168c0,2.881-4.797,6.474-5.777,7.166h5.777v0.86h-7.392v-0.8c1.585-1.131,6.518-4.752,6.518-7.256
		c0-1.435-0.739-2.264-2.218-2.264h-4.404V23.478z"/>
	<path clip-path="url(#SVGID_2_)" fill="none" stroke="#FFFFFF" stroke-miterlimit="10" d="M95.867,23.478
		c1.537-0.195,3.062-0.256,4.435-0.256c2.188,0,3.062,1.523,3.062,3.168c0,2.881-4.797,6.474-5.777,7.166h5.777v0.86h-7.392v-0.8
		c1.585-1.131,6.518-4.752,6.518-7.256c0-1.435-0.739-2.264-2.218-2.264h-4.404V23.478z"/>
	<path clip-path="url(#SVGID_2_)" fill="#FFFFFF" d="M106.878,25.817c0-1.628,1.161-2.443,2.595-2.443h2.324
		c1.841,0,2.519,1.116,2.519,2.443v6.155c0,1.796-1.026,2.444-2.519,2.444h-2.324c-1.373,0-2.595-0.634-2.595-2.444V25.817z
		 M109.473,33.556h2.324c1.176,0,1.658-0.603,1.658-1.584v-6.155c0-0.919-0.437-1.583-1.658-1.583h-2.324
		c-1.146,0-1.735,0.647-1.735,1.583v6.155C107.737,33.12,108.537,33.556,109.473,33.556"/>
	<path clip-path="url(#SVGID_2_)" fill="none" stroke="#FFFFFF" stroke-miterlimit="10" d="M106.878,25.817
		c0-1.628,1.161-2.443,2.595-2.443h2.324c1.841,0,2.519,1.116,2.519,2.443v6.155c0,1.796-1.026,2.444-2.519,2.444h-2.324
		c-1.373,0-2.595-0.634-2.595-2.444V25.817z M109.473,33.556h2.324c1.176,0,1.658-0.603,1.658-1.584v-6.155
		c0-0.919-0.437-1.583-1.658-1.583h-2.324c-1.146,0-1.735,0.647-1.735,1.583v6.155C107.737,33.12,108.537,33.556,109.473,33.556z"/>
	<polygon clip-path="url(#SVGID_2_)" fill="#FFFFFF" points="117.678,24.656 120.213,23.373 121.071,23.373 121.071,34.417 
		120.213,34.417 120.213,24.354 117.678,25.244 	"/>
	<polygon clip-path="url(#SVGID_2_)" fill="none" stroke="#FFFFFF" stroke-miterlimit="10" points="117.678,24.656 120.213,23.373 
		121.071,23.373 121.071,34.417 120.213,34.417 120.213,24.354 117.678,25.244 	"/>
	<path clip-path="url(#SVGID_2_)" fill="#858685" d="M125.204,33.572h4.586c1.056,0,1.613-0.74,1.613-1.689v-1.585
		c0-0.588-0.09-1.674-1.613-1.674h-2.323c-0.694,0-1.449,0.514-1.449,1.389h-0.784l0.332-6.64h6.366v0.86h-5.566l-0.212,4.164
		c0.182-0.241,0.68-0.588,1.373-0.634c0.905-0.074,1.795,0,2.264,0c1.779,0,2.475,1.042,2.475,2.505v1.645
		c0,2.066-1.54,2.564-2.475,2.564c-1.87,0-2.883-0.016-4.586-0.286V33.572z"/>
	<path clip-path="url(#SVGID_2_)" fill="none" stroke="#FFFFFF" stroke-miterlimit="10" d="M125.204,33.572h4.586
		c1.056,0,1.613-0.74,1.613-1.689v-1.585c0-0.588-0.09-1.674-1.613-1.674h-2.323c-0.694,0-1.449,0.514-1.449,1.389h-0.784
		l0.332-6.64h6.366v0.86h-5.566l-0.212,4.164c0.182-0.241,0.68-0.588,1.373-0.634c0.905-0.074,1.795,0,2.264,0
		c1.779,0,2.475,1.042,2.475,2.505v1.645c0,2.066-1.54,2.564-2.475,2.564c-1.87,0-2.883-0.016-4.586-0.286V33.572z"/>
	<path clip-path="url(#SVGID_2_)" fill="#FFFFFF" d="M3.009,18.078c0,0.721,0.335,0.721,0.824,0.721h1.03
		c0.025,0.207,0.025,0.438,0.025,0.592c0,0.103,0,0.359-0.025,0.565H2.778c-0.953,0-1.004-0.745-1.004-1.209v-6.034
		c0-2.189-0.387-2.343-1.622-2.369C0.1,10.112,0.1,9.984,0.1,9.855c0-0.103,0-0.309,0.052-0.54c1.235-0.026,1.622-0.284,1.622-2.446
		V1.31c0-0.463,0.051-1.21,1.004-1.21h2.085c0.025,0.206,0.025,0.463,0.025,0.566c0,0.155,0,0.387-0.025,0.592h-1.03
		c-0.489,0-0.824,0-0.824,0.721v4.89c0,1.416-0.309,2.291-0.849,2.934c0.566,0.619,0.849,1.339,0.849,2.729V18.078z"/>
	<path clip-path="url(#SVGID_2_)" fill="none" stroke="#FFFFFF" stroke-width="0.2" stroke-miterlimit="10" d="M3.009,18.078
		c0,0.721,0.335,0.721,0.824,0.721h1.03c0.025,0.207,0.025,0.438,0.025,0.592c0,0.103,0,0.359-0.025,0.565H2.778
		c-0.953,0-1.004-0.745-1.004-1.209v-6.034c0-2.189-0.387-2.343-1.622-2.369C0.1,10.112,0.1,9.984,0.1,9.855
		c0-0.103,0-0.309,0.052-0.54c1.235-0.026,1.622-0.284,1.622-2.446V1.31c0-0.463,0.051-1.21,1.004-1.21h2.085
		c0.025,0.206,0.025,0.463,0.025,0.566c0,0.155,0,0.387-0.025,0.592h-1.03c-0.489,0-0.824,0-0.824,0.721v4.89
		c0,1.416-0.309,2.291-0.849,2.934c0.566,0.619,0.849,1.339,0.849,2.729V18.078z"/>
	<path clip-path="url(#SVGID_2_)" fill="#FFFFFF" d="M140.041,12.532c0-1.39,0.283-2.11,0.85-2.729
		c-0.54-0.643-0.85-1.518-0.85-2.934v-4.89c0-0.721-0.335-0.721-0.823-0.721h-1.03c-0.025-0.205-0.025-0.437-0.025-0.592
		c0-0.103,0-0.36,0.025-0.566h2.085c0.953,0,1.004,0.747,1.004,1.21v5.559c0,2.163,0.387,2.42,1.622,2.446
		c0.052,0.231,0.052,0.437,0.052,0.54c0,0.129,0,0.258-0.052,0.489c-1.235,0.026-1.622,0.18-1.622,2.369v6.035
		c0,0.462-0.051,1.208-1.004,1.208h-2.085c-0.025-0.206-0.025-0.463-0.025-0.565c0-0.154,0-0.387,0.025-0.592h1.03
		c0.488,0,0.823,0,0.823-0.721V12.532z"/>
	<path clip-path="url(#SVGID_2_)" fill="none" stroke="#FFFFFF" stroke-width="0.2" stroke-miterlimit="10" d="M140.041,12.532
		c0-1.39,0.283-2.11,0.85-2.729c-0.54-0.643-0.85-1.518-0.85-2.934v-4.89c0-0.721-0.335-0.721-0.823-0.721h-1.03
		c-0.025-0.205-0.025-0.437-0.025-0.592c0-0.103,0-0.36,0.025-0.566h2.085c0.953,0,1.004,0.747,1.004,1.21v5.559
		c0,2.163,0.387,2.42,1.622,2.446c0.052,0.231,0.052,0.437,0.052,0.54c0,0.129,0,0.258-0.052,0.489
		c-1.235,0.026-1.622,0.18-1.622,2.369v6.035c0,0.462-0.051,1.208-1.004,1.208h-2.085c-0.025-0.206-0.025-0.463-0.025-0.565
		c0-0.154,0-0.387,0.025-0.592h1.03c0.488,0,0.823,0,0.823-0.721V12.532z"/>
	<polygon clip-path="url(#SVGID_2_)" fill="#FFFFFF" points="9.478,3.36 10.805,3.36 17.721,13.197 18.616,14.869 18.4,13.011 
		18.4,3.36 19.922,3.36 19.922,16.895 18.517,16.895 11.65,7.085 10.785,5.563 11.001,7.367 11.001,16.895 9.478,16.895 	"/>
	<polygon clip-path="url(#SVGID_2_)" fill="none" stroke="#FFFFFF" stroke-miterlimit="10" points="9.478,3.36 10.805,3.36 
		17.721,13.197 18.616,14.869 18.4,13.011 18.4,3.36 19.922,3.36 19.922,16.895 18.517,16.895 11.65,7.085 10.785,5.563 
		11.001,7.367 11.001,16.895 9.478,16.895 	"/>
	<path clip-path="url(#SVGID_2_)" fill="#FFFFFF" d="M31.523,17.072c-2.332,0-3.871-0.66-4.618-1.982
		c-0.438-0.766-0.697-1.79-0.775-3.069c-0.034-0.602-0.05-1.257-0.05-1.964c0-0.708,0.023-1.379,0.069-2.013
		c0.046-0.634,0.136-1.207,0.27-1.721c0.134-0.512,0.324-0.965,0.57-1.358c0.245-0.392,0.568-0.72,0.968-0.986
		c0.825-0.531,2.013-0.796,3.566-0.796h0.61c2.429,0,3.985,0.59,4.667,1.769c0.424,0.738,0.664,1.764,0.716,3.079
		c0.027,0.643,0.039,1.323,0.039,2.039c0,0.717-0.019,1.377-0.058,1.982c-0.039,0.604-0.121,1.163-0.246,1.676
		c-0.124,0.513-0.306,0.976-0.545,1.389c-0.239,0.413-0.562,0.764-0.968,1.053c-0.839,0.601-2.04,0.902-3.605,0.902H31.523z
		 M32.114,15.798c0.72,0,1.317-0.071,1.793-0.212c0.475-0.142,0.85-0.39,1.125-0.743c0.511-0.655,0.766-1.911,0.766-3.769v-0.955
		c0-0.891-0.027-1.684-0.079-2.38c-0.052-0.696-0.193-1.283-0.422-1.76c-0.472-0.991-1.494-1.487-3.066-1.487h-0.825
		c-1.598,0-2.62,0.463-3.065,1.389c-0.282,0.59-0.436,1.286-0.462,2.088c-0.027,0.802-0.039,1.519-0.039,2.15v0.955
		c0,1.74,0.288,2.967,0.864,3.681c0.556,0.695,1.497,1.043,2.82,1.043H32.114z"/>
	<path clip-path="url(#SVGID_2_)" fill="none" stroke="#FFFFFF" stroke-miterlimit="10" d="M31.523,17.072
		c-2.332,0-3.871-0.66-4.618-1.982c-0.438-0.766-0.697-1.79-0.775-3.069c-0.034-0.602-0.05-1.257-0.05-1.964
		c0-0.708,0.023-1.379,0.069-2.013c0.046-0.634,0.136-1.207,0.27-1.721c0.134-0.512,0.324-0.965,0.57-1.358
		c0.245-0.392,0.568-0.72,0.968-0.986c0.825-0.531,2.013-0.796,3.566-0.796h0.61c2.429,0,3.985,0.59,4.667,1.769
		c0.424,0.738,0.664,1.764,0.716,3.079c0.027,0.643,0.039,1.323,0.039,2.039c0,0.717-0.019,1.377-0.058,1.982
		c-0.039,0.604-0.121,1.163-0.246,1.676c-0.124,0.513-0.306,0.976-0.545,1.389c-0.239,0.413-0.562,0.764-0.968,1.053
		c-0.839,0.601-2.04,0.902-3.605,0.902H31.523z M32.114,15.798c0.72,0,1.317-0.071,1.793-0.212c0.475-0.142,0.85-0.39,1.125-0.743
		c0.511-0.655,0.766-1.911,0.766-3.769v-0.955c0-0.891-0.027-1.684-0.079-2.38c-0.052-0.696-0.193-1.283-0.422-1.76
		c-0.472-0.991-1.494-1.487-3.066-1.487h-0.825c-1.598,0-2.62,0.463-3.065,1.389c-0.282,0.59-0.436,1.286-0.462,2.088
		c-0.027,0.802-0.039,1.519-0.039,2.15v0.955c0,1.74,0.288,2.967,0.864,3.681c0.556,0.695,1.497,1.043,2.82,1.043H32.114z"/>
	<polygon clip-path="url(#SVGID_2_)" fill="#FFFFFF" points="60.749,3.36 69.268,3.36 69.268,4.669 62.419,4.669 62.419,9.34 
		67.94,9.34 67.94,10.641 62.419,10.641 62.419,15.595 69.532,15.595 69.532,16.895 60.749,16.895 	"/>
	<polygon clip-path="url(#SVGID_2_)" fill="none" stroke="#FFFFFF" stroke-miterlimit="10" points="60.749,3.36 69.268,3.36 
		69.268,4.669 62.419,4.669 62.419,9.34 67.94,9.34 67.94,10.641 62.419,10.641 62.419,15.595 69.532,15.595 69.532,16.895 
		60.749,16.895 	"/>
	<path clip-path="url(#SVGID_2_)" fill="#82BB26" d="M84.5,14.57c-1.022,0.352-2.053,0.53-3.148,0.53
		c-1.351,0-2.275-0.332-2.748-0.988c-0.453-0.623-0.683-1.792-0.683-3.475V9.983c0-2.596,0.351-3.71,0.645-4.191
		c0.22-0.363,0.517-0.616,0.907-0.773c0.854-0.348,2.606-0.443,5.03,0.319l0.477,0.149l0.738-2.338L85.257,2.99
		c-0.246-0.085-0.692-0.188-1.361-0.315c-0.666-0.126-1.548-0.19-2.623-0.19c-1.721,0-3.068,0.335-3.998,0.991
		c-0.479,0.33-0.865,0.74-1.147,1.218c-0.272,0.46-0.483,0.986-0.626,1.564c-0.138,0.562-0.229,1.183-0.272,1.846
		c-0.043,0.649-0.066,1.34-0.066,2.055c0,0.713,0.024,1.384,0.071,1.997c0.112,1.317,0.436,2.391,0.964,3.188
		c0.887,1.347,2.605,2.03,5.105,2.03h0.137c0.554,0,1.201-0.048,1.921-0.141c0.75-0.099,1.403-0.271,1.94-0.514l0.419-0.189
		l-0.75-2.121L84.5,14.57z"/>
	<path clip-path="url(#SVGID_2_)" fill="#82BB26" d="M100.577,4.504c-0.773-1.34-2.49-2.019-5.099-2.019h-0.61
		c-1.642,0-2.933,0.294-3.844,0.879c-0.458,0.305-0.833,0.688-1.114,1.138c-0.27,0.432-0.481,0.935-0.63,1.497
		c-0.141,0.54-0.237,1.149-0.285,1.811c-0.047,0.648-0.069,1.337-0.069,2.048c0,0.718,0.016,1.382,0.051,1.995
		c0.082,1.351,0.364,2.457,0.838,3.285c0.839,1.484,2.54,2.236,5.054,2.236h0.61c1.664,0,2.975-0.335,3.894-0.996
		c0.463-0.328,0.837-0.735,1.111-1.209c0.263-0.452,0.464-0.964,0.598-1.521c0.132-0.539,0.22-1.132,0.26-1.762
		c0.04-0.614,0.06-1.286,0.06-2.014c0-0.724-0.012-1.411-0.039-2.059C101.307,6.422,101.042,5.31,100.577,4.504 M94.75,4.794h0.825
		c1.374,0,2.23,0.393,2.615,1.203c0.201,0.418,0.327,0.95,0.374,1.581c0.052,0.685,0.078,1.473,0.078,2.342v0.956
		c0,2.161-0.359,3.075-0.661,3.461c-0.211,0.273-0.498,0.459-0.873,0.571c-0.427,0.127-0.982,0.192-1.65,0.192h-0.59
		c-1.158,0-1.975-0.288-2.431-0.858c-0.5-0.619-0.753-1.752-0.753-3.366V9.92c0-0.626,0.012-1.337,0.039-2.133
		c0.022-0.728,0.163-1.364,0.412-1.887C92.493,5.156,93.35,4.794,94.75,4.794"/>
	<polygon clip-path="url(#SVGID_2_)" fill="#82BB26" points="115.435,12.389 108.597,2.662 106.51,2.662 106.51,17.198 
		109.034,17.198 109.031,7.542 115.789,17.198 116.932,17.198 116.948,17.227 116.945,17.198 117.955,17.198 117.955,2.662 
		115.432,2.662 	"/>
	<polygon clip-path="url(#SVGID_2_)" fill="#82BB26" points="133.249,4.971 133.249,2.662 123.612,2.662 123.612,17.197 
		126.283,17.197 126.283,11.588 132.325,11.588 132.325,9.288 126.283,9.288 126.283,4.971 	"/>
	<path clip-path="url(#SVGID_2_)" fill="#FFFFFF" d="M52.331,13.295c-0.196,0.849-0.583,1.448-1.159,1.796
		c-0.59,0.36-1.493,0.539-2.712,0.539h-3.124V9.916h-1.671v6.98h4.529c1.723,0,3.03-0.242,3.921-0.726
		c0.864-0.46,1.464-1.215,1.798-2.265c0.288-0.908,0.432-2.238,0.432-3.989h-1.758C52.586,11.473,52.5,12.599,52.331,13.295"/>
	<path clip-path="url(#SVGID_2_)" fill="none" stroke="#FFFFFF" stroke-miterlimit="10" d="M52.331,13.295
		c-0.196,0.849-0.583,1.448-1.159,1.796c-0.59,0.36-1.493,0.539-2.712,0.539h-3.124V9.916h-1.671v6.98h4.529
		c1.723,0,3.03-0.242,3.921-0.726c0.864-0.46,1.464-1.215,1.798-2.265c0.288-0.908,0.432-2.238,0.432-3.989h-1.758
		C52.586,11.473,52.5,12.599,52.331,13.295z"/>
	<path clip-path="url(#SVGID_2_)" fill="#FFFFFF" d="M52.331,6.961c-0.196-0.849-0.583-1.448-1.159-1.796
		c-0.59-0.36-1.493-0.539-2.712-0.539h-3.124v5.714h-1.671V3.36h4.529c1.723,0,3.03,0.242,3.921,0.726
		c0.864,0.46,1.464,1.215,1.798,2.265c0.288,0.908,0.432,2.238,0.432,3.989h-1.758C52.586,8.783,52.5,7.657,52.331,6.961"/>
	<path clip-path="url(#SVGID_2_)" fill="none" stroke="#FFFFFF" stroke-miterlimit="10" d="M52.331,6.961
		c-0.196-0.849-0.583-1.448-1.159-1.796c-0.59-0.36-1.493-0.539-2.712-0.539h-3.124v5.714h-1.671V3.36h4.529
		c1.723,0,3.03,0.242,3.921,0.726c0.864,0.46,1.464,1.215,1.798,2.265c0.288,0.908,0.432,2.238,0.432,3.989h-1.758
		C52.586,8.783,52.5,7.657,52.331,6.961z"/>
</g>
</svg>
