<?xml version="1.0" encoding="utf-8"?>
<!-- Generator: Adobe Illustrator 16.0.3, SVG Export Plug-In . SVG Version: 6.00 Build 0)  -->
<!DOCTYPE svg PUBLIC "-//W3C//DTD SVG 1.1//EN" "http://www.w3.org/Graphics/SVG/1.1/DTD/svg11.dtd">
<svg version="1.1" id="Layer_1" xmlns="http://www.w3.org/2000/svg" xmlns:xlink="http://www.w3.org/1999/xlink" x="0px" y="0px"
	 width="128.632px" height="78.435px" viewBox="0 0 128.632 78.435" enable-background="new 0 0 128.632 78.435"
	 xml:space="preserve">
<g>
	<defs>
		<rect id="SVGID_1_" width="128.632" height="78.435"/>
	</defs>
	<clipPath id="SVGID_2_">
		<use xlink:href="#SVGID_1_"  overflow="visible"/>
	</clipPath>
	<path clip-path="url(#SVGID_2_)" d="M30.921,78.219c-4.525,0-8.673-0.539-12.444-1.615c-3.771-1.078-7.04-2.587-9.804-4.525
		c-2.766-1.939-4.903-4.256-6.411-6.95C0.754,62.436,0,59.438,0,56.132v-0.215c0-4.596,1.112-8.332,3.339-11.205
		c2.226-2.872,5.388-5.172,9.482-6.896c-2.874-1.651-5.298-3.787-7.273-6.41c-1.976-2.621-2.963-5.98-2.963-10.074v-0.215
		c0-3.017,0.682-5.8,2.048-8.35c1.363-2.549,3.286-4.758,5.763-6.626c2.479-1.867,5.458-3.322,8.943-4.364
		c3.483-1.04,7.343-1.562,11.582-1.562c4.237,0,8.097,0.522,11.582,1.562c3.483,1.042,6.482,2.497,8.996,4.364
		c2.514,1.868,4.453,4.077,5.819,6.626c1.363,2.55,2.046,5.333,2.046,8.35v0.215c0,4.094-0.988,7.453-2.962,10.074
		c-1.977,2.623-4.436,4.759-7.381,6.41c1.94,0.862,3.699,1.85,5.28,2.963c1.579,1.115,2.926,2.389,4.04,3.825
		c1.113,1.438,1.993,3.07,2.64,4.901c0.646,1.832,0.969,3.897,0.969,6.195v0.216c0,3.377-0.773,6.447-2.316,9.211
		c-1.546,2.767-3.682,5.118-6.411,7.058c-2.73,1.939-5.998,3.431-9.804,4.472C39.611,77.698,35.446,78.219,30.921,78.219
		 M30.921,62.597c3.519,0,6.212-0.844,8.081-2.531c1.867-1.688,2.801-3.681,2.801-5.98V53.87c0-2.513-1.007-4.525-3.017-6.033
		c-2.011-1.508-4.633-2.263-7.865-2.263c-3.232,0-5.855,0.755-7.865,2.263c-2.012,1.508-3.016,3.521-3.016,6.033v0.216
		c0,2.3,0.932,4.293,2.801,5.98C24.708,61.753,27.401,62.597,30.921,62.597 M30.921,32.106c2.801,0,5.064-0.789,6.788-2.37
		c1.724-1.579,2.585-3.556,2.585-5.926v-0.216c0-2.082-0.826-3.932-2.478-5.548c-1.653-1.616-3.951-2.424-6.895-2.424
		c-2.874,0-5.136,0.808-6.787,2.424c-1.654,1.616-2.479,3.466-2.479,5.548v0.216c0,2.37,0.844,4.347,2.532,5.926
		C25.874,31.317,28.12,32.106,30.921,32.106"/>
	<path clip-path="url(#SVGID_2_)" d="M98.68,78.435c-5.387,0-9.895-0.755-13.521-2.263s-6.807-3.626-9.534-6.357
		c-2.802-2.801-5.047-6.444-6.734-10.935c-1.688-4.488-2.532-10.252-2.532-17.292v-0.216c0-5.889,0.718-11.348,2.155-16.377
		c1.437-5.026,3.609-9.39,6.519-13.09c2.908-3.699,6.554-6.607,10.935-8.727C90.347,1.061,95.482,0,101.373,0
		c5.314,0,9.912,0.705,13.791,2.114c3.879,1.411,7.649,3.488,11.313,6.234l-9.804,14.708c-2.3-1.724-4.616-3.106-6.95-4.148
		c-2.334-1.04-5.01-1.562-8.025-1.562c-2.731,0-4.976,0.554-6.734,1.66c-1.761,1.106-3.178,2.479-4.256,4.119
		c-1.077,1.641-1.851,3.389-2.316,5.244c-0.468,1.855-0.772,3.532-0.916,5.03c2.441-1.867,4.956-3.303,7.542-4.309
		c2.585-1.005,5.494-1.509,8.728-1.509c3.302,0,6.464,0.522,9.48,1.563s5.656,2.55,7.919,4.525c2.263,1.976,4.075,4.435,5.441,7.38
		c1.363,2.946,2.047,6.286,2.047,10.019v0.217c0,4.238-0.791,8.026-2.371,11.366c-1.581,3.34-3.717,6.179-6.41,8.512
		c-2.692,2.335-5.872,4.131-9.535,5.387S102.773,78.435,98.68,78.435 M97.817,62.167c3.304,0,5.89-0.934,7.758-2.801
		c1.866-1.867,2.801-4.165,2.801-6.896v-0.215c0-2.729-0.969-5.027-2.908-6.896c-1.94-1.865-4.562-2.801-7.866-2.801
		c-3.304,0-5.871,0.916-7.703,2.748c-1.831,1.831-2.747,4.112-2.747,6.841v0.217c0,2.729,0.951,5.047,2.855,6.948
		C91.909,61.215,94.513,62.167,97.817,62.167"/>
</g>
</svg>
